<?xml version="1.0" encoding="utf-8"?>
<!-- Generator: Adobe Illustrator 23.0.6, SVG Export Plug-In . SVG Version: 6.00 Build 0)  -->
<svg version="1.1" id="Laag_2" xmlns="http://www.w3.org/2000/svg" xmlns:xlink="http://www.w3.org/1999/xlink" x="0px" y="0px"
	 viewBox="0 0 300 300" style="enable-background:new 0 0 300 300;" xml:space="preserve">
<style type="text/css">
	.st0{display:none;}
	.st1{display:inline;fill:url(#SVGID_1_);}
	.st2{stroke:#000000;stroke-miterlimit:10;}
</style>
<g id="Laag_4" class="st0">
	<linearGradient id="SVGID_1_" gradientUnits="userSpaceOnUse" x1="3.366949e-09" y1="300" x2="300" y2="-3.367177e-09">
		<stop  offset="0" style="stop-color:#3E4596"/>
		<stop  offset="1" style="stop-color:#6F4896"/>
	</linearGradient>
	<rect class="st1" width="300" height="300"/>
</g>
<path d="M145.6,95V180c-1,5.5-3.5,14.3-10.3,22.9c-14.9,18.7-37.8,20.1-41.8,20.2H75.9v-36.4h14.6c0,0,24.7,0.4,20.2-46.5l-34.9,9.4
	V113L145.6,95z"/>
<path class="st2" d="M214.6,77.4l-36,9.6c0,31.9,0,63.7,0,95.6c-0.3,8.3-2.2,25.3-13.6,42.1c-20.3,29.9-54,34.6-59.7,35.3
	c-9.8-0.2-19.6-0.3-29.4-0.5v35.6c14.9,0.2,29.9,0.4,44.8,0.6c7.8-1.1,48.7-7.7,74.7-44.5c15.8-22.3,18.5-45.1,19.1-55.8V77.4z"/>
<polygon points="75.9,77.4 75.9,41 214.6,4.3 214.6,40.8 "/>
</svg>
