<?xml version="1.0" encoding="utf-8"?>
<!-- Generator: Adobe Illustrator 24.1.2, SVG Export Plug-In . SVG Version: 6.00 Build 0)  -->
<svg version="1.1" id="Layer_1" xmlns="http://www.w3.org/2000/svg" xmlns:xlink="http://www.w3.org/1999/xlink" x="0px" y="0px"
	 viewBox="0 0 1280 1280" style="enable-background:new 0 0 1280 1280;" xml:space="preserve">
<style type="text/css">
	.st0{fill:#161925;}
	.st1{clip-path:url(#SVGID_2_);fill:#E2C042;}
	.st2{clip-path:url(#SVGID_4_);}
	.st3{fill:#6D6D6D;}
	.st4{fill:#ED254E;}
	.st5{fill:#40434E;}
	.st6{fill:#5D536B;}
	.st7{fill:#FFFFFF;}
	.st8{fill:none;stroke:#465362;stroke-width:3;stroke-miterlimit:10;}
	.st9{fill:#C9DAEA;}
	.st10{fill:#333333;}
	.st11{fill:#0C0C0C;}
	.st12{fill:none;stroke:#ED254E;stroke-width:5;stroke-miterlimit:10;}
	.st13{opacity:0.35;}
	.st14{opacity:0.4;}
</style>
<g id="Layer_2_1_">
</g>
<g id="Layer_3">
</g>
<g id="Layer_1_1_">
</g>
<g id="Layer_4">
	<rect y="0" class="st0" width="1284" height="1284"/>
	<g>
		<g>
			<defs>
				<circle id="SVGID_1_" cx="640" cy="640" r="630"/>
			</defs>
			<clipPath id="SVGID_2_">
				<use xlink:href="#SVGID_1_"  style="overflow:visible;"/>
			</clipPath>
			<rect y="0" class="st1" width="1284" height="1284"/>
		</g>
		<g>
			<defs>
				<circle id="SVGID_3_" cx="640" cy="640" r="630"/>
			</defs>
			<clipPath id="SVGID_4_">
				<use xlink:href="#SVGID_3_"  style="overflow:visible;"/>
			</clipPath>
			<g class="st2">
				<g>
					<path class="st3" d="M456.1,325.1c0.4-11.7,0.8-27.8,1.7-43.8c0.3-4.9,1.9-9.7,3.1-14.5c0.7-2.7,2.5-3,5.2-2.5
						c16.6,2.8,33.1,6.1,49.8,8c50.8,5.9,101.8,5.5,152.8,4.4c28.9-0.6,57.8-3.1,86.7-5.7c12.8-1.1,25.3-4.4,38-6.8
						c2.5-0.5,4.4,0,4.8,2.6c1.5,8,3.8,15.9,4.1,24c1.1,29.1,0.9,58.3-2.2,87.3c-1.6,14.8-9.3,27.1-19.7,37.7
						c-13.2,13.6-29.1,23.2-46.7,29.5c-12.8,4.6-25.9,8.6-39.2,11.5c-28.8,6.2-58.1,8-87.6,5.9c-17.1-1.2-34-3.7-50.6-7.8
						c-28.4-6.9-55.3-17.1-76.6-38.3c-10.3-10.2-17.4-22.3-20.4-36.6c-0.8-3.9-1-7.9-1.2-11.8C457.4,355.3,456.9,342.4,456.1,325.1z
						"/>
					<path class="st4" d="M617.7,125.4c1.2-0.4,11.3-0.3,12.5-0.3c8.8,0.4,17.6,0.7,26.4,1.5c15.1,1.5,29.8,4.7,44,10
						c24.1,8.9,44,23.4,59.4,43.9c14.6,19.3,23.5,41.3,29.5,64.6c0.8,3.2,1.4,6.4,2.3,9.6c0.7,2.5,0.3,3.9-2.6,4.5
						c-10.1,1.8-20.1,4.3-30.2,5.6c-44,5.6-88.2,6.6-132.5,6.4c-25.2-0.1-50.3-0.3-75.5-1.9c-22.3-1.3-44.5-4.4-66.7-7
						c-5.1-0.6-10-2.3-15-3.3c-2.2-0.5-2.7-1.5-2.2-3.7c7-31.9,18.6-61.7,41.4-86c15.9-16.9,35.2-28.1,57.1-35.2
						c17.1-5.5,34.6-7.5,52.3-9.1"/>
					<path class="st0" d="M624.9,128.4c-8.1,3.4-10.5,9.8-10.7,17.8c-1.1,37.8-2.2,75.6-3.5,113.4c-0.1,4.2,1.5,5.4,5.1,5.4
						c9.2,0,18.4,0,27.7,0c3.5,0,5.1-1.1,5-5.2c-1.3-38.3-2.4-76.7-3.6-115c-0.2-4.9-1.3-9.6-5.3-13.1c-1-0.9-1.4-2.4-2-3.6
						c-3.5-0.2-9.2,0.4-12.7,0.1c-0.1-0.4-7.1-2.4-7.2-2.9c1.2-0.4,11.3-0.3,12.5-0.3c8.8,0.4,17.6,0.7,26.4,1.5
						c15.1,1.5,29.8,4.7,44,10c24.1,8.9,44,23.4,59.4,43.9c14.6,19.3,23.5,41.3,29.5,64.6c0.8,3.2,1.4,6.4,2.3,9.6
						c0.7,2.5,0.3,3.9-2.6,4.5c-10.1,1.8-20.1,4.3-30.2,5.6c-44,5.6-88.2,6.6-132.5,6.4c-25.2-0.1-50.3-0.3-75.5-1.9
						c-22.3-1.3-44.5-4.4-66.7-7c-5.1-0.6-10-2.3-15-3.3c-2.2-0.5-2.7-1.5-2.2-3.7c7-31.9,18.6-61.7,41.4-86
						c15.9-16.9,35.2-28.1,57.1-35.2c17.1-5.5,34.6-7.5,52.3-9.1C620.9,124.8,623.4,125,624.9,128.4z M546.3,263.6
						c-2.5-6.7-5.2-12.4-6.9-18.4c-3.7-13.2-8.5-25.9-16.7-37c-5.9-8-12.7-15.1-21.3-20.9c-0.9,1.3-1.8,2.2-2.4,3.3
						c-5.2,9.8-10.2,19.7-15.5,29.4c-1.7,3.2-0.9,4.9,1.7,7.2c5.1,4.5,10.3,9.2,14.4,14.6c3.5,4.6,5.3,10.4,8,15.7
						c0.6,1.1,1.6,2.7,2.6,2.8C522.2,261.5,534.1,262.5,546.3,263.6z M713.4,263.5c12.2-1,24.6-2.1,37.1-3.1
						c4.3-14.5,12.5-25.9,24.7-34.5c2-1.4,1.7-3,0.8-4.8c-3-6.5-5.8-13.1-9.1-19.5c-2.6-5-5.9-9.6-9.1-14.6
						c-15.9,11.6-26.8,26-33.3,43.6C720.6,241.2,717.2,252,713.4,263.5z"/>
					<path class="st4" d="M769.1,476.5c-12.3,23.5-27.7,44.7-47.6,62.3c-14.3,12.7-30.3,22.8-48.3,29.3c-20.5,7.4-41.6,9.9-63.3,6.2
						c-37.8-6.4-67-26.8-91.4-55.3c-19-22.2-32.6-47.6-42.5-75c-3.9-10.7-6.6-21.7-9.3-32.9c3.6,3.8,7.2,7.7,10.9,11.4
						c12.6,12.6,27.8,21.4,44.3,27.6c12.3,4.6,24.8,8.9,37.6,11.5c16.8,3.4,34,6,51.1,7.3c27.1,2,54.2,0,81-5.4
						c19.3-3.9,38.2-9.1,56.1-17.6c16.6-7.9,31.2-18.4,43-32.6c0.6-0.7,1.3-1.4,2-2.1c0.3,0.2,0.6,0.3,1,0.5
						c-4.1,12.7-8.1,25.4-12.3,38"/>
					<path class="st0" d="M705,516.6c-2.1,3.1-2.3,4.9,0.4,7.2c2.7,2.3,5.1,5,7.9,7c0.9,0.6,3.3,0.3,4.2-0.5
						c5.3-4.8,10.8-9.6,15.5-15c8.8-10.5,17.1-21.5,25.7-32.1l4.3-6.8c1.4-4.3,8.5-14.2,9.7-17c4.7-11.1,8.9-22.3,13.3-33.5
						c0.3-0.8,0.2-1.8-0.3-3.1c-1.5,1.8-2.8,3.8-4.4,5.5c-13,13.9-27,26.6-43.1,36.8c-0.2,0.1-0.4,0.3-0.7,0.4
						c-10.1,2.5-11.2,12-14.9,19.4 M769.1,476.5c-12.3,23.5-27.7,44.7-47.6,62.3c-14.3,12.7-30.3,22.8-48.3,29.3
						c-20.5,7.4-41.6,9.9-63.3,6.2c-37.8-6.4-67-26.8-91.4-55.3c-19-22.2-32.6-47.6-42.5-75c-3.9-10.7-6.6-21.7-9.3-32.9
						c3.6,3.8,7.2,7.7,10.9,11.4c12.6,12.6,27.8,21.4,44.3,27.6c12.3,4.6,24.8,8.9,37.6,11.5c16.8,3.4,34,6,51.1,7.3
						c27.1,2,54.2,0,81-5.4c19.3-3.9,38.2-9.1,56.1-17.6c16.6-7.9,31.2-18.4,43-32.6c0.6-0.7,1.3-1.4,2-2.1c0.3,0.2,0.6,0.3,1,0.5
						c-4.1,12.7-8.1,25.4-12.3,38 M659.3,566.4c-0.4-2.4-0.8-4.4-1.1-6.3c-2.9-18.7-5.8-37.4-8.8-56.1c-0.5-2.9-1.1-6.1-2.7-8.4
						c-5.5-7.9-16.5-10.8-25.3-6.9c-4.8,2.1-9.7,5-10.7,10.7c-3.3,18.8-6.2,37.6-9.3,56.4c-0.5,3.5-0.8,7-1.3,10.6
						C619.9,571.5,639.3,571.4,659.3,566.4z M473.2,423.4c-0.3,0-0.5,0.1-0.8,0.1c2.1,6.3,3.9,12.7,6.3,18.9
						c6.9,17.6,16.3,33.8,27.6,48.9c10.2,13.6,21.1,26.6,33.8,38c2.8,2.5,5,3.2,7.7-0.1c1.8-2.1,4-3.8,6-5.6c2.5-2.2,3-4.3,0.3-6.9
						c-1.2-1.1-2.1-2.7-2.8-4.2c-6.5-13-12.9-26-19.4-38.9c-0.8-1.6-1.5-3.8-2.9-4.4c-13.5-6.2-24.6-15.7-35.4-25.6
						C486.6,437.2,480,430.2,473.2,423.4z"/>
				</g>
				<g>
					<path class="st5" d="M784.2,1058.8c-84.2-98.1-229-106.5-324.8-12.4c0-4.9,0-8.5,0-12c0-112,0.1-224.1-0.2-336.1
						c0-6.2-2.2-12.6-4.4-18.6c-0.6-1.7-4.4-2.8-6.9-3.3c-26.3-5.7-38.8-20.8-38.8-47.6c0-12.3-0.1-24.5,0-36.8
						c0.2-23.4,13.8-40.1,36.6-44.9c14.8-3.1,29.6-6,44.3-9.2c27.6-5.8,46.2-27.5,47.5-55.8c0.5-11-0.2-22.1,1.2-33
						c3-22.4,15.2-39.3,36.6-46.3c39.3-13,79.5-13.1,118.7-0.1c24.1,8,36,27.4,37.7,52.6c0.8,11.9-0.5,24.1,1.7,35.7
						c4.7,24.9,20.3,40.6,45,46.5c15.3,3.6,30.8,6.3,46.2,9.6c21.6,4.5,35.3,20.6,35.7,42.5c0.3,14.8,0.3,29.6,0,44.4
						c-0.5,21.4-14.3,37.5-35.4,41.7c-9.3,1.8-18.5,4.3-27.8,5c-7.7,0.6-11,4.1-12,11c-0.5,4-0.9,8.1-0.9,12.2
						c0,114.3,0,228.5,0,342.8C784.2,1049.9,784.2,1053.3,784.2,1058.8z M632.1,766.5c66.7,0.1,120.4-53.1,120.7-119.4
						c0.3-66.7-52.9-120.9-119-121.1C566,525.7,512,579.2,512.1,646.4C512.2,712.9,565.6,766.4,632.1,766.5z M757.7,917.6
						c0-13.2,0-26.4,0-39.7c0-0.3,0-0.6,0-0.9c-0.4-14.1-9.6-24-22.6-24c-12.9-0.1-22.5,9.8-22.6,23.8c-0.2,26.8-0.2,53.5,0,80.3
						c0.1,14.7,9.6,24.7,22.9,24.5c12.9-0.2,22-10,22.2-24.3C757.9,944,757.7,930.8,757.7,917.6z M483.5,917.2c0,12.9,0,25.8,0,38.7
						c0,0.6,0,1.3,0,1.9c0.4,13.8,9,23.3,21.6,23.8c12.9,0.4,23-9,23.2-23.2c0.4-27.4,0.4-54.7,0-82.1
						c-0.2-14.1-10.2-23.7-23.1-23.3c-12.6,0.4-21.5,9.9-21.7,23.6C483.4,890.1,483.5,903.6,483.5,917.2z M619,788.8
						c-24.7,0.5-47.1,6.3-66.8,20.8c-5.3,3.9-9.1,8.8-4.6,15c4.5,6.3,9.9,4.4,15.5,0.4c5.3-3.8,11-7.5,17.1-9.8
						c35.2-13.5,68.4-10.1,98.4,13.8c5.4,4.3,10.7,6.2,15.5,0.1c4.4-5.7,1.5-10.6-3.3-14.6C669.9,796.8,645.4,789.6,619,788.8z
						 M618.3,824.7c-24.5,0.5-46.8,6.4-66.5,21.1c-4.8,3.5-7.7,7.6-5,13.6c2.8,6.2,9,6.5,16.7,1.1c34.6-24.2,81.9-22.9,114,3.4
						c5.4,4.4,11,7.8,16.3,1.3c5.3-6.4,1-11.6-4.2-15.9C668.8,832.3,644.5,825.2,618.3,824.7z M693,971.5c-3-3.9-5.1-7.4-8-10
						c-20.3-18-44.5-25.4-71.3-24.4c-21.7,0.8-41.3,7.7-58.1,21.8c-6.7,5.6-7.2,13.7-0.5,16.1c3.7,1.3,9.8-0.2,13.2-2.6
						c18.2-13.3,38.1-18.7,60.4-16.1c17.5,2,32.5,8.9,45.7,20.5c2.7,2.4,7.9,3.2,11.6,2.6C688.4,979,690.2,974.8,693,971.5z
						 M620.7,879.4c-20.4,0.6-37.5,8.1-51.4,22.6c-4.7,4.9-7,10.3-1.3,15.5c5.3,4.9,10.1,2.2,14.7-2.2c24.8-23.8,52.8-22.8,76.4,2.6
						c4.4,4.8,9.1,7.3,14.6,2.6c5.4-4.7,3.9-10-0.2-14.9C659.7,889.1,642,880.3,620.7,879.4z"/>
					<path class="st0" d="M552.9,1822.1c14.6-13.3,28.5-26,42.4-38.7c2.1-1.9,4.7-3.5,6.2-5.8c2-3,3-6.6,4.5-9.9
						c-3.4,1-7.7,0.9-10.1,3c-10.6,8.9-20.6,18.5-30.9,27.8c-6,5.5-12.1,10.9-18.8,17c-15.9-16.8-23.8-36.4-26-58.5
						c-0.3-3.4-0.3-6.9-0.3-10.4c0-154.9,0-309.8,0-464.6c0-3.4,0-6.8,0-10.9c3.8-0.2,6.8-0.4,9.9-0.5c34,0,68-0.2,102,0.2
						c4.7,0.1,10.3,2.4,13.9,5.5c16,13.7,31.4,28.2,47.4,41.9c2.7,2.3,7.2,2.4,10.8,3.5c-1.7-3.5-2.6-7.8-5.3-10.3
						c-14.1-13.3-28.7-26.1-44.4-40.3c22.9,0,43.8,0,65.8,0c0.1,2.8,0.4,5.8,0.4,8.8c0,155.8,0.2,311.6-0.1,467.4
						c-0.1,40.3-18.4,71.1-54.1,89.6c-35,18.2-69.8,15.3-103-6.1c-2.1-1.4-4.1-3-6-4.5C556.1,1825.3,555,1824.1,552.9,1822.1z
						 M602.6,1286.8c-2.3,1.7-4.4,3-6.2,4.6c-19.3,17.5-38.7,34.9-57.7,52.7c-2.3,2.1-2.5,6.4-3.7,9.7c3.2-0.9,7.1-1,9.4-2.9
						c11.6-10,22.8-20.6,34.2-30.9c8.3-7.6,16.8-15.1,24.9-22.9c1.7-1.6,2.2-4.7,2.5-7.2C606.3,1289.2,604.1,1288.1,602.6,1286.8z
						 M538.5,1697.6c2.2-1.6,4-2.8,5.6-4.3c19.5-17.7,39.1-35.4,58.3-53.4c2.1-2,2.3-6.1,3.3-9.2c-3.2,0.8-7.2,0.8-9.4,2.7
						c-16.3,14.3-32.2,29-48.2,43.6c-4.2,3.8-8.5,7.5-12.4,11.6c-1.2,1.3-1.8,3.9-1.5,5.7C534.6,1695.6,536.9,1696.4,538.5,1697.6z
						 M706.5,1589.4c-2.7-3.1-4.1-5.1-5.9-6.8c-19.5-17.7-39-35.3-58.8-52.7c-2-1.8-5.8-1.6-8.7-2.3c0.9,3.1,0.9,7.2,3,9.1
						c19.3,17.9,39,35.4,58.6,52.9c1.4,1.2,3.1,3.3,4.5,3.1C701.3,1592.6,703.4,1590.9,706.5,1589.4z M636.2,1323.4
						c-1.5,1.2-4.2,2.5-4.1,3.3c0.4,2.5,1.3,5.4,3.1,7.1c19.7,18,39.5,35.8,59.5,53.4c2,1.8,5.7,1.6,8.6,2.4
						c-0.9-3.1-0.8-7.2-2.9-9.1c-19.3-17.9-39-35.4-58.7-53C640.3,1326.1,638.4,1325,636.2,1323.4z M631,1396.4
						c1.7,2,2.9,3.8,4.5,5.2c19.8,17.8,39.5,35.7,59.5,53.3c2,1.7,5.8,1.3,8.8,1.8c-0.9-2.9-1-6.6-2.9-8.5
						c-10.2-9.8-20.8-19-31.3-28.5c-9.5-8.6-19-17.3-28.8-25.7c-1.6-1.4-4.4-2.1-6.5-2C633.2,1392.1,632.2,1394.7,631,1396.4z
						 M536.8,1562c3.7-2.7,5.8-4,7.7-5.7c10.3-9.3,20.5-18.6,30.7-27.9c9.8-8.9,19.7-17.7,29.1-26.9c1.5-1.4,1.1-4.8,1.6-7.2
						c-2.5,0.2-5.1,0.1-7.5,0.6c-1.1,0.2-1.9,1.5-2.8,2.4c-18.8,17.2-37.7,34.3-56.5,51.5c-1.6,1.5-4.1,3-4.4,4.7
						C534.3,1555.8,535.7,1558.3,536.8,1562z M636.2,1593.1c-1.6,1.3-4.2,2.6-4.1,3.4c0.4,2.5,1.4,5.4,3.2,7.1
						c19.7,18,39.5,35.8,59.5,53.4c2,1.8,5.7,1.5,8.7,2.2c-1-3.1-1-7.2-3-9.1c-19.3-17.9-39-35.4-58.7-53
						C640.2,1595.8,638.3,1594.7,636.2,1593.1z M538.3,1492.4c2.1-1.5,4-2.5,5.6-3.9c19.7-17.9,39.5-35.8,59-53.9
						c2-1.8,2.2-5.7,3.2-8.6c-3.2,0.7-7.3,0.4-9.4,2.3c-11.2,9.6-21.9,19.7-32.8,29.6c-9,8.2-18.2,16.4-27,24.8
						c-1.5,1.5-2.5,4.1-2.6,6.3C534.1,1490,536.7,1491.1,538.3,1492.4z M607.6,1702.3c-1.2-1.6-2.2-3.8-2.9-3.7
						c-2.5,0.3-5.5,0.7-7.2,2.3c-20.1,18-40.1,36.1-59.8,54.6c-1.9,1.8-1.9,5.6-2.7,8.4c2.9-0.6,6.7-0.2,8.7-1.9
						c20.2-17.9,40-36.2,60-54.4C605.1,1706.1,606.1,1704.2,607.6,1702.3z M607.6,1360.5c-1.2-1.6-2.2-3.8-2.9-3.7
						c-2.5,0.3-5.5,0.7-7.3,2.3c-20.1,18-40,36.2-59.7,54.6c-1.9,1.8-1.9,5.6-2.7,8.4c3-0.6,6.8-0.2,8.7-1.9
						c20.2-17.9,40-36.1,59.9-54.3C605.1,1364.4,606.1,1362.4,607.6,1360.5z M630,1462.7c2.8,3.1,4.2,5.2,6,6.8
						c19.4,17.5,38.7,35,58.4,52.2c2.2,1.9,6.3,1.6,9.5,2.4c-1.2-3.1-1.5-7.1-3.7-9.1c-19-17.5-38.2-34.6-57.4-51.8
						c-1.6-1.4-3.5-3.6-5.3-3.7C635.3,1459.4,633.1,1461.2,630,1462.7z M536.6,1630.4c3.7-2.7,5.8-3.9,7.6-5.6
						c19.5-17.7,39-35.3,58.3-53.4c2.1-1.9,2.2-6,3.2-9.1c-3.2,0.9-7.2,0.9-9.5,2.9c-19.5,17.3-38.6,34.9-57.8,52.5
						c-1.4,1.3-3.6,2.6-3.7,4C534.5,1624.2,535.7,1626.7,536.6,1630.4z M636,1728.1c-1.7,1.5-4.3,3.1-4.1,3.8c0.7,2.5,1.9,5.3,3.8,7
						c19.5,17.8,39.2,35.5,59,52.9c2,1.8,5.8,1.6,8.7,2.4c-1-3.1-1-7.2-3-9.1c-19.2-17.7-38.7-35.1-58.2-52.5
						C640.5,1730.9,638.3,1729.7,636,1728.1z M705.8,1723.7c-1.8-2.2-3.1-4.3-4.9-5.9c-19.6-17.7-39.2-35.4-59.1-52.8
						c-2.1-1.8-5.8-1.7-8.8-2.5c0.9,3.1,0.9,7.2,3,9.1c12.1,11.5,24.6,22.4,37,33.6c7.5,6.7,14.9,13.6,22.6,20.1
						c1.7,1.4,4.4,1.9,6.7,2C703.2,1727.3,704.3,1725.3,705.8,1723.7z"/>
					<path class="st5" d="M500.8,1270.5c0,126.6,0,251.5,0,378.2c-13.7-5.4-26.6-10.4-39.4-15.7c-1.1-0.5-1.7-3-2-4.7
						c-0.3-2.5-0.1-5-0.1-7.5c0-169.6,0-339.2-0.1-508.9c0-7.1,1.8-12.3,6.7-17.6c85.1-91,237.4-84.3,312.4,14.2
						c3.3,4.3,5.6,10.7,5.6,16.1c0.3,165.8,0.2,331.7,0.4,497.5c0,7.1-1.8,10.7-8.7,13c-11.8,3.9-23.3,8.9-35.8,13.8
						c0-126.7,0-252,0-378.4c8,0,15.4-0.4,22.9,0.1c6.5,0.5,9-1.7,10.8-8.2c22.8-81-29.7-159.2-111.8-180.1
						c-72.9-18.5-149.7,13.6-183.7,76.7c-18.2,33.9-20.9,69.4-10.3,106c0.7,2.3,4.5,4.9,7,5.1
						C483.1,1270.9,491.5,1270.5,500.8,1270.5z"/>
					<path class="st6" d="M863.4,560c-10.7-8-20.9-15.5-31.6-23.4c12.6-40.3,38.3-67.8,83.4-73.4c6.1-0.8,12.6-0.2,18.7,0.7
						c7.3,1.1,11-0.4,13.5-8.4c6.8-22.2,14.8-44.1,22.2-66.1c8-24.2,23.4-42,46.1-53.6c18.8-9.5,37.5-19.1,57-29.1
						c-9.4-29.9-6.7-58.3,11.8-84.2c12.6-17.5,29.6-29,50.5-34.2c43.3-10.8,87.6,11.3,104.7,52.1c16.9,40.2,2.2,86.7-34.2,110.4
						c-30.8,20-86.6,24.2-124.4-26.9c-22,11.6-45,22-66,35.5c-10,6.4-18.9,17.5-23.6,28.4c-10.7,25.4-18.5,52-27.8,79.1
						c11,1.4,21.1,2.7,32.2,4.1c-1.5,12.8-2.9,25.1-4.4,37.9c-18.9-2.2-37-4-55.1-6.4c-31.3-4.2-52.4,7.6-64.4,36.6
						C869,546.3,866,553.6,863.4,560z"/>
					<path class="st6" d="M240.5,282.7c17.2,12.7,33.8,25.1,50.6,37.2c21.9,15.8,34.3,37,38.3,63.6c3.6,23.9,7.8,47.8,11.8,71.7
						c0.5,2.7,1.3,5.4,1.9,7.9c56.1,0.6,89.2,24.1,103.4,73.2c-5.8,2.1-11.8,3.6-17.2,6.4c-5.5,2.8-10.4,6.9-16.2,11
						c-2.6-6.1-5.2-12.4-7.9-18.6c-10-23-30.9-35.6-55.8-33.2c-20.3,2-40.5,4.6-61.9,7.1c-1.5-12.5-2.9-24.5-4.4-37.8
						c13.7-1.8,26.9-3.5,40.6-5.3c-5.1-30.1-9-59.4-15.4-88.2c-2.5-11.1-8.4-23.4-16.6-30.9c-19.4-17.6-41.2-32.7-61.9-48.6
						c-45.8,44.4-100.9,32.3-129.4,4.8c-32.6-31.4-36.8-82.4-9.6-118.7c27.2-36.3,77.1-46.4,116.7-23.8
						C239.8,179.1,268.1,226.2,240.5,282.7z"/>
					<path class="st5" d="M756.1,1251.5c-3.4,0-6.5,0-9.6,0c-84.3,0-168.6-0.1-252.9,0.2c-7.9,0-10.6-1.9-11.8-10
						c-8.6-57.2,26-113.2,84.2-135.6c65-24.9,139.6-2.1,175.2,53.8c16.5,26,22.3,54.4,16.9,84.9
						C757.6,1246.9,756.8,1249,756.1,1251.5z"/>
					<path class="st5" d="M439.9,736.2c0,138.5,0,276.3,0,415.4c-1.5-2.3-2.6-3.8-3.3-5.4c-47.5-112.7-94.8-225.5-142.4-338.1
						c-5.1-12.1-0.6-22.7,7.1-30.1c9.4-9.2,20.8-17.4,32.8-22.7c26.7-11.8,55.8-14.5,84.6-17.3C425.6,737.2,432.4,736.8,439.9,736.2
						z"/>
					<path class="st5" d="M803.7,1147c0-138,0-274,0-410.7c38.5,3.4,76.5,5.8,111.7,22.3c15.3,7.2,28,17.3,32.3,34.7
						c1.1,4.2,0.9,9.6-0.7,13.6c-46.7,111.7-93.6,223.2-140.4,334.7C806,1142.8,805.2,1144.1,803.7,1147z"/>
					<path class="st5" d="M418.9,1153.2c7.1,16.7,13.8,32.3,20.3,47.9c0.8,2,1.2,4.2,1.2,6.3c0.1,98.8,0,197.5-0.9,296.6
						c-59.8-97.5-102.1-201.9-125.6-315C348.8,1177.1,383.4,1165.3,418.9,1153.2z"/>
					<path class="st5" d="M803,1499.3c0-5.3,0-10.6,0-15.8c0-89,0.2-178-0.2-267c0-12.6,1.7-24.2,7.3-35.4
						c4.3-8.7,7.7-17.9,11.9-27.9c34.9,11.9,69.4,23.7,105,35.8C904.2,1300.1,862.6,1403.1,803,1499.3z"/>
					<path class="st5" d="M995.3,1192.3c-55.5-18.9-110.1-37.5-165.9-56.5c21.2-50.4,42.1-100.2,63.6-151.3
						c29.3,22.3,59,42.5,85.9,66c25,21.8,34,51.7,28.6,84.7C1004.4,1154,999.6,1172.5,995.3,1192.3z"/>
					<path class="st5" d="M411.6,1135.8c-55.3,18.9-109.7,37.4-165.3,56.4c-1.1-3.9-2.2-7.4-2.9-10.9c-4.3-22.8-12.9-44.8-10.9-68.6
						c2.3-27.8,13.9-51,35.8-68.2c25.7-20.2,52.4-39.2,79.9-59.6C369.4,1035.3,390.3,1085.1,411.6,1135.8z"/>
					<path class="st5" d="M186.9,533c-23.6,3.2-46.6,6.3-69.6,9.3c-8.7,1.2-17.4,2.7-26.2,3.2c-15.8,0.9-28.3-10.1-29.6-25.4
						c-1.3-14.9,9.6-28,25.3-29.8c38.7-4.5,77.4-9,116.2-13.1c6.5-0.7,10.4-2.3,11.6-9.4c1.1-6.5,3.3-12.8,5.4-19
						c3.8-11.2,13.9-17.8,25.4-17c11.3,0.8,21,8.8,22.6,20.6c3.6,27.7,6.9,55.5,9.5,83.4c1.2,12.3-7.5,23.2-19.5,26.9
						c-11.8,3.7-24.5-0.8-31.1-11.6c-3.1-5.1-5.8-10.5-8.2-15.9c-2.4-5.5-5.8-6.9-11-4.3c-0.3,0.7-0.7,1.2-0.7,1.8
						c-2,34.6-13,46.2-47.3,49.5c-5.3,0.5-10.7,0.7-16,1c-13.7,0.8-25.6,5.6-35.5,15.4c-6.5,6.4-13.2,12.6-19.8,18.8
						c-4.8,4.5-10.1,5.6-14.9,0.6c-4.6-4.7-3.3-9.9,1.2-14.1c9.1-8.7,17.4-18.8,27.9-25.2c10.9-6.7,23.8-10.6,36.3-14.1
						c8-2.3,16.8-1.6,25.3-2.2C180.6,561.1,188.7,551.3,186.9,533z"/>
					<path class="st5" d="M1060,535.6c-2.4,4.6-4.7,9.3-7.3,13.8c-6.6,11.6-18.9,16.9-31.2,13.5c-12.5-3.4-21.3-14.1-20-27.3
						c2.6-28.2,5.9-56.3,9.6-84.3c1.4-10.9,10.7-18.4,21.3-19.5c11.1-1.2,21.4,4.9,25.7,15.3c0.8,2,1.4,4.2,2,6.3
						c6.7,23,6.8,22.8,30.7,25.4c33.4,3.6,66.8,7.5,100.2,11.3c17,2,27.6,14.7,26,30.9c-1.5,15.3-14.7,26.2-31.3,24.2
						c-31.5-3.7-62.9-8.2-94.4-12.4c-3-0.4-6.1-0.7-9.1-1c-2.6,15,5.4,26.6,19.3,28.3c8.7,1,17.5,1.5,26.3,2.1
						c18,1.1,33.5,7.5,46.6,20.1c6.8,6.5,13.7,13,20.5,19.5c4.7,4.4,6.8,9.6,1.9,14.8c-5.2,5.6-10.7,3.9-15.6-1.1
						c-39.7-40.5-41.4-32.4-81.7-36.3C1077.3,577.2,1063.4,561.1,1060,535.6z"/>
					<path class="st5" d="M783.2,1098.3c-78.8-92.9-224.6-109.2-323-12.5c-2.1-14.3-1.1-26,10.5-37.3
						c84.8-83.5,226.2-77.8,302.8,12.9C785.4,1075.6,786,1077.6,783.2,1098.3z"/>
					<path class="st4" d="M757.7,917.6c0,13.2,0.1,26.4,0,39.7c-0.2,14.3-9.3,24.1-22.2,24.3c-13.3,0.2-22.8-9.7-22.9-24.5
						c-0.2-26.8-0.2-53.5,0-80.3c0.1-14.1,9.7-23.9,22.6-23.8c12.9,0.1,22.2,9.9,22.6,24c0,0.3,0,0.6,0,0.9
						C757.7,891.1,757.7,904.3,757.7,917.6z"/>
					<path class="st4" d="M483.5,917.2c0-13.5-0.1-27,0-40.6c0.2-13.7,9.1-23.3,21.7-23.6c12.9-0.4,22.9,9.2,23.1,23.3
						c0.3,27.4,0.4,54.7,0,82.1c-0.2,14.1-10.3,23.6-23.2,23.2c-12.5-0.4-21.2-10-21.6-23.8c0-0.6,0-1.3,0-1.9
						C483.5,943,483.5,930.1,483.5,917.2z"/>
					<path class="st0" d="M619,788.8c26.3,0.8,50.9,8,71.7,25.7c4.8,4.1,7.7,9,3.3,14.6c-4.8,6.1-10,4.2-15.5-0.1
						c-30-24-63.2-27.3-98.4-13.8c-6.1,2.3-11.7,6.1-17.1,9.8c-5.6,4-11.1,5.8-15.5-0.4c-4.5-6.3-0.7-11.1,4.6-15
						C572,795.1,594.4,789.3,619,788.8z"/>
					<path class="st0" d="M618.3,824.7c26.2,0.6,50.5,7.6,71.3,24.7c5.3,4.3,9.5,9.5,4.2,15.9c-5.3,6.4-10.9,3.1-16.3-1.3
						c-32.2-26.3-79.5-27.7-114-3.4c-7.7,5.4-13.9,5.1-16.7-1.1c-2.7-6,0.2-10.1,5-13.6C571.5,831.1,593.8,825.1,618.3,824.7z"/>
					<path class="st0" d="M693,971.5c-2.8,3.3-4.6,7.5-7,7.9c-3.7,0.6-8.9-0.2-11.6-2.6c-13.2-11.6-28.2-18.5-45.7-20.5
						c-22.3-2.6-42.2,2.8-60.4,16.1c-3.4,2.5-9.5,4-13.2,2.6c-6.6-2.4-6.1-10.5,0.5-16.1c16.8-14.1,36.4-20.9,58.1-21.8
						c26.8-1,51,6.3,71.3,24.4C687.9,964.1,690,967.7,693,971.5z"/>
					<path class="st0" d="M620.7,879.4c21.3,0.8,38.9,9.7,52.7,26.3c4.1,4.9,5.6,10.3,0.2,14.9c-5.4,4.7-10.2,2.2-14.6-2.6
						c-23.6-25.5-51.6-26.5-76.4-2.6c-4.6,4.4-9.4,7.1-14.7,2.2c-5.7-5.3-3.4-10.6,1.3-15.5C583.3,887.5,600.3,880.1,620.7,879.4z"
						/>
				</g>
				<g>
					<path class="st6" d="M140.8,471.3c-2.3-1.3-4.6-2.5-7-3.9c-0.4,1.1-0.8,2.1-1.1,3.2c-1.1,4.3-0.8,8.5,0.4,12.8
						c5.8,20.1,11.6,40.2,17.3,60.3c2.6,8.9-2.7,18-11.6,20.3c-3.4,0.8-6.7,1.5-10.2,1.2c-0.7-0.1-1.5-0.2-2.2-0.3
						c-2.1-0.5-3.4-1.5-4.1-3.8c-6.4-22.6-12.9-45.2-19.4-67.7c-0.1-0.5-0.3-0.9-0.4-1.5c-2.6,0.7-5,1.4-7.7,2.2
						c0.1,0.5,0.3,1,0.4,1.4c7,24.3,14,48.7,21,73c0.3,1,0.2,1.7-0.6,2.5c-8.3,7.7-17.7,10.5-28.8,7.3c-1-0.3-1.5-0.8-1.8-1.8
						c-6.1-21.6-12.2-43.1-18.3-64.7c-0.1-0.4-0.2-0.8-0.4-1.3c-2.6,0.7-5.1,1.5-7.7,2.2c0.1,0.5,0.3,0.9,0.4,1.4
						c6.1,21.4,12.1,42.7,18.2,64.1c0.3,1,0.1,1.5-0.7,2c-4.8,3.3-10,5.2-15.8,5.3c-6.4,0-11.3-3.1-14.9-8.3c-2-2.8-3.4-5.8-4.3-9.1
						c-5.1-17.7-10.4-35.3-15.2-53.1c-2.8-10.3-0.8-19.9,6.3-28.1c3.5-4,8.2-5.9,13.1-7.4c1.3-0.4,2.7-0.8,4-0.9
						c1-0.1,1.4-0.5,1.8-1.4c3.2-7.1,8-12.7,15.1-16.1c6-2.9,12.3-3.8,18.8-3.3c0.9,0.1,1.3-0.2,1.7-1c3.8-8.9,10.6-14,19.9-15.9
						c8.4-1.8,16.1,0.3,23.5,4.2c0.8,0.4,1.4,0.5,2.3,0c5.5-2.7,11.1-5.3,17.3-5.5c13.6-0.4,22.1,5,27.5,15.3c2.8,5.3,4.1,11,5,16.9
						c1.4,9.2,3,18.3,4.5,27.5c1.4,8.6,2.8,17.2,4.2,25.8c0.6,3.7,1.3,7.4,0.8,11.3c-0.6,4.2-1.7,8.2-4.9,11.2
						c-6.3,5.9-17.1,8.7-25.1,1c-2-1.9-3.3-4.2-4.1-6.8c-5.8-20.3-11.6-40.5-17.5-60.8C139.8,477.7,139.6,474.5,140.8,471.3z"/>
					<path class="st6" d="M207,535c0-1-0.1-2.8,1-4c1.4-1.5,4-1.4,6-1c0.5,0.2,1.2,0.5,2,1c2.7,1.9,3.4,4.9,4,7
						c2.7,8.6,7.3,9.8,8.8,17.8c0.1,0.8,0.1,1.6,0.1,2.5c-0.5,5.4-3.6,9.2-4.8,10.5c-2.5,3-5.9,5.1-10.1,6.5
						c-1.1,0.4-2.2,0.5-3.3,0.4c-6-0.4-11.8,0.8-17.4,2.9c-7.6,2.8-14.6,6.9-21.7,10.7c-4.5,2.4-9,4.8-13.9,6.3
						c-1.7,0.5-3.5,1-5.3,1.1c-5.7,0.4-9.8-2.7-11.2-8.2c-1-3.9-0.8-7.9-0.2-11.8c0.2-1.7,0.7-3.3,0.9-5c0.1-0.8,0.6-1.1,1.3-1.2
						c4.1-0.6,8.1-1.6,11.6-3.9c4.4-2.9,7.6-6.8,9.6-11.7c0.2-0.5,0.4-0.9,0.5-1.3c0,0,0.1,0,0.1,0c1.3,0.8,2.5,1.7,3.8,2.5
						c3.2,1.8,6.4,2.8,9.7,3.1c4.6,0.4,8.2-0.7,10-1.3c2.7-0.9,10.4-3.3,14.3-10.1C204.5,545.1,207.1,540.5,207,535z"/>
				</g>
				<g>
					<path class="st6" d="M1134.4,471.3c2.3-1.3,4.6-2.5,7-3.9c0.4,1.1,0.8,2.1,1.1,3.2c1.1,4.3,0.8,8.5-0.4,12.8
						c-5.8,20.1-11.6,40.2-17.3,60.3c-2.6,8.9,2.7,18,11.6,20.3c3.3,0.8,6.7,1.5,10.2,1.2c0.7-0.1,1.5-0.2,2.2-0.3
						c2.1-0.5,3.4-1.5,4.1-3.8c6.4-22.6,12.9-45.2,19.4-67.7c0.1-0.5,0.3-0.9,0.4-1.5c2.6,0.7,5,1.4,7.7,2.2c-0.1,0.5-0.3,1-0.4,1.4
						c-7,24.3-14,48.7-21,73c-0.3,1-0.2,1.7,0.6,2.5c8.3,7.7,17.7,10.5,28.8,7.3c1-0.3,1.5-0.8,1.8-1.8
						c6.1-21.6,12.2-43.1,18.3-64.7c0.1-0.4,0.2-0.8,0.4-1.3c2.6,0.7,5.1,1.5,7.7,2.2c-0.1,0.5-0.3,0.9-0.4,1.4
						c-6.1,21.4-12.1,42.7-18.2,64.1c-0.3,1-0.1,1.5,0.7,2c4.8,3.3,10,5.2,15.8,5.3c6.4,0,11.3-3.1,14.9-8.3c2-2.8,3.4-5.8,4.3-9.1
						c5.1-17.7,10.4-35.3,15.2-53.1c2.8-10.3,0.8-19.9-6.3-28.1c-3.4-4-8.2-5.9-13.1-7.4c-1.3-0.4-2.7-0.8-4-0.9
						c-0.9-0.1-1.4-0.5-1.8-1.4c-3.2-7.1-8-12.7-15.1-16.1c-6-2.9-12.3-3.8-18.8-3.3c-0.9,0.1-1.3-0.2-1.7-1
						c-3.8-8.9-10.6-14-19.9-15.9c-8.4-1.8-16.1,0.3-23.5,4.2c-0.8,0.4-1.4,0.5-2.3,0c-5.5-2.7-11.1-5.3-17.3-5.5
						c-13.6-0.4-22.2,5-27.5,15.3c-2.8,5.3-4.1,11-5,16.9c-1.4,9.2-3,18.3-4.5,27.5c-1.4,8.6-2.8,17.2-4.2,25.8
						c-0.6,3.7-1.3,7.4-0.8,11.3c0.6,4.2,1.7,8.2,4.9,11.2c6.3,5.9,17.1,8.7,25.1,1c2-1.9,3.3-4.2,4.1-6.8
						c5.8-20.3,11.7-40.5,17.5-60.8C1135.4,477.7,1135.6,474.5,1134.4,471.3z"/>
					<path class="st6" d="M1068.1,535c0-1,0.2-2.8-1-4c-1.4-1.5-4-1.4-6-1c-0.5,0.2-1.2,0.5-2,1c-2.7,1.9-3.4,4.9-4,7
						c-2.7,8.6-7.3,9.8-8.8,17.8c-0.1,0.8-0.2,1.6-0.1,2.5c0.5,5.4,3.6,9.2,4.8,10.5c2.5,3,5.9,5.1,10.2,6.5
						c1.1,0.4,2.2,0.5,3.3,0.4c6-0.4,11.8,0.8,17.4,2.9c7.6,2.8,14.6,6.9,21.7,10.7c4.5,2.4,9,4.8,13.9,6.3c1.7,0.5,3.5,1,5.3,1.1
						c5.7,0.4,9.8-2.7,11.2-8.2c1-3.9,0.8-7.9,0.2-11.8c-0.2-1.7-0.7-3.3-0.9-5c-0.1-0.8-0.6-1.1-1.3-1.2c-4.1-0.6-8.1-1.6-11.6-3.9
						c-4.4-2.9-7.7-6.8-9.6-11.7c-0.2-0.5-0.4-0.9-0.5-1.3c0,0-0.1,0-0.1,0c-1.3,0.8-2.5,1.7-3.8,2.5c-3.2,1.8-6.4,2.8-9.7,3.1
						c-4.6,0.4-8.2-0.7-10-1.3c-2.7-0.9-10.4-3.3-14.3-10.1C1070.7,545.1,1068,540.5,1068.1,535z"/>
				</g>
				<circle class="st7" cx="632.3" cy="641.5" r="134.1"/>
				<circle class="st8" cx="632.3" cy="641.5" r="133.8"/>
				<g>
					<g>
						<path class="st9" d="M551.1,650l0.5,3.9l-49.5,6.4l-0.5-3.9L551.1,650z"/>
						<path class="st9" d="M552.9,622.5l-0.8,3.8l-48.7-10.5l0.8-3.8L552.9,622.5z"/>
						<path class="st9" d="M563.8,597.1l-2,3.3l-42.5-26l2-3.3L563.8,597.1z"/>
						<path class="st9" d="M582.5,576.8l-3,2.5l-31.3-38.8l3-2.5L582.5,576.8z"/>
						<path class="st9" d="M607,563.9l-3.7,1.3l-16.7-47l3.7-1.3L607,563.9z"/>
						<path class="st9" d="M634.3,559.9h-3.9l0-49.9h3.9L634.3,559.9z"/>
						<path class="st9" d="M661.4,565.2l-3.7-1.3l16.7-47l3.7,1.3L661.4,565.2z"/>
						<path class="st9" d="M685.2,579.2l-3-2.5l31.3-38.8l3,2.5L685.2,579.2z"/>
						<path class="st9" d="M702.9,600.4l-2-3.3l42.5-26.1l2,3.3L702.9,600.4z"/>
						<path class="st4" d="M712.6,626.3l-0.8-3.8l48.7-10.5l0.8,3.8L712.6,626.3z"/>
						<path class="st4" d="M713.1,653.9l0.5-3.9l49.5,6.4l-0.5,3.9L713.1,653.9z"/>
					</g>
				</g>
				<g>
					<g>
						<path class="st9" d="M552.7,570.9l-1.3,1.5l-19.8-17.2l1.3-1.5L552.7,570.9z"/>
						<path class="st9" d="M582.2,547.7l-1.8,1l-12.6-23l1.8-1L582.2,547.7z"/>
						<path class="st9" d="M713.5,572.7l-1.3-1.6L732,554l1.3,1.6L713.5,572.7z"/>
						<path class="st4" d="M731.8,603.6l-0.8-1.9l24.4-9.6l0.8,1.9L731.8,603.6z"/>
					</g>
				</g>
				<circle class="st10" cx="631.6" cy="640.8" r="9"/>
				<g>
					<path class="st10" d="M557.8,640.8c5.9-0.5,11.8-0.8,17.7-1.1c5.9-0.3,11.8-0.4,17.7-0.6c5.9-0.1,11.8-0.3,17.7-0.3
						c5.9,0,11.8-0.1,17.7,0l-1.4,0.6l1.9-1.8l1-1l1.2,0.6l3,1.5l0.8,0.4l0.2,0.8c0.3,1,0.5,2,0.7,3l0.5,2.4l-2.4,0l-3.7-0.1l-3,0
						l1.3-2.6l0.8-1.5l0.5-1l1.1,0l1.5,0l-1.2,3c-1.2-1.3-2.5-2.5-3.7-3.8l-2.2-2.4l3.1-0.4l4.5-0.6l0.8-0.1l0.5,0.5l1.5,1.5
						l0.2,0.2l0.1,0.2l1.4,3l0.4,0.9l-0.7,0.6L635,645l-0.4,0.4l-0.5,0l-5.2-0.2l-0.7,0l-0.2-0.5l-0.7-1.5l0-0.1l0,0l-1.2-5.3
						l-0.2-0.7l0.7-0.1l4.5-0.5l0.1,0l0,0l4.4,1.1l-4.5-0.4h0.1l-4.4,1l0.5-0.8l1.8,5.1l-0.1-0.2l0.8,1.5l-0.9-0.5l5.2-0.2l-0.9,0.4
						l2.1-2.3l-0.3,1.5l-1.6-2.9l0.3,0.4l-1.5-1.5l1.3,0.4l-4.5,0.9l0.9-2.8c1.3,1.2,2.5,2.4,3.8,3.7l3,2.9l-4.3,0.1l-1.5,0l1.6-1
						l-0.7,1.5l-1.6-2.6l3.7-0.1l-1.8,2.3c-0.3-1-0.5-2-0.8-3l1,1.3l-3-1.5l2.2-0.4l-1.8,1.9l-0.6,0.6l-0.8,0
						c-5.9,0.1-11.8,0-17.7,0c-5.9,0-11.8-0.2-17.7-0.3c-5.9-0.2-11.8-0.3-17.7-0.6C569.6,641.6,563.7,641.3,557.8,640.8z"/>
				</g>
				<g>
					<path class="st11" d="M577.6,710.2v7.9h-24.7v-7.9H577.6z"/>
				</g>
				<g>
					<g>
						<path class="st4" d="M714.5,716.5h-9.7v9.8h-9.2v-9.8h-9.7v-8.8h9.7v-9.9h9.2v9.9h9.7V716.5z"/>
					</g>
				</g>
				<path class="st12" d="M755.3,591.1c14.8,36,8.3,70.3,8.3,70.3"/>
				<g class="st13">
					<g>
						<path d="M612.7,726.3c0.4,6.6,0.9,9.9,2.1,16.5c3.6-5.7,5.2-8.6,8-14.6c2.2,0.3,3.2,0.4,5.4,0.5c-3.4,8.2-5.5,12.2-10.3,19.9
							c-3.3-0.5-4.9-0.8-8.1-1.5c-1.7-9-2.1-13.4-2.3-22.3C609.5,725.4,610.6,725.7,612.7,726.3z"/>
						<path d="M635.6,728.8c0.1,4.8,0.2,7.2,0.4,12c0,1.4,0.4,2.4,1.2,3.1c0.8,0.7,1.9,1,3.3,0.9c1.4-0.1,2.5-0.6,3.1-1.4
							c0.7-0.8,0.9-1.9,0.7-3.3c-0.6-4.8-0.9-7.2-1.5-11.9c2-0.2,3-0.4,5.1-0.8c0.9,4.7,1.3,7.1,2.2,11.8c0.4,1.9,0.2,3.6-0.5,5.1
							c-0.7,1.5-1.8,2.7-3.4,3.6c-1.6,0.9-3.4,1.4-5.6,1.6s-4-0.1-5.6-0.7c-1.6-0.6-2.9-1.7-3.7-3c-0.9-1.4-1.2-3-1.2-5
							c0.1-4.8,0.2-7.2,0.4-12C632.5,728.8,633.5,728.8,635.6,728.8z"/>
					</g>
				</g>
			</g>
		</g>
	</g>
	<g>
		<g class="st14">
			<path d="M417.2,234.3c0.6,7.9-1.2,15.7-5.4,23.6c-4.2,7.9-10.9,15.1-20.1,21.6c-13.9,9.9-27.8,14.6-41.6,14.2s-25.4-6.4-34.9-18
				l31.9-22.6c3.8,4.4,8.1,6.9,12.8,7.5s9.4-0.6,13.8-3.7c3.9-2.7,6.1-5.9,6.9-9.6s-0.1-7.3-2.6-10.8c-2.2-3.2-5.1-5.1-8.7-5.7
				c-3.5-0.6-7.3-0.6-11.3,0.2c-4,0.8-9.3,2.2-16,4.1c-9.7,2.9-18,4.8-24.7,5.8s-13.7,0.3-20.8-2.1c-7.1-2.4-13.5-7.6-19.1-15.6
				c-5.2-7.4-7.9-15.1-7.9-23.1c-0.1-8,2.2-15.8,6.8-23.4c4.6-7.5,11.1-14.4,19.7-20.4c13.8-9.8,27.1-14.3,39.9-13.5
				c12.8,0.8,23.7,6.5,32.9,17.3l-32.5,23c-3.5-3.7-7.3-5.9-11.4-6.6c-4.1-0.7-8.2,0.4-12.3,3.3c-3.5,2.5-5.7,5.4-6.5,8.8
				c-0.8,3.4,0,6.9,2.6,10.5c2.1,2.9,4.8,4.7,8.2,5.4c3.4,0.7,7,0.6,10.8-0.2c3.8-0.8,9.2-2.1,16.1-4c9.9-2.9,18.2-4.9,25.1-5.8
				c6.9-0.9,13.9-0.2,21.1,2.3c7.2,2.5,13.6,7.7,19.4,15.8C414.1,219.2,416.7,226.4,417.2,234.3z"/>
			<path d="M511,68.5c13.1,3,24.6,9.2,34.5,18.6s17,21.2,21.3,35.5s4.9,28.1,1.9,41.4s-9.2,24.9-18.5,34.7
				c-9.3,9.8-20.7,16.7-34.3,20.8c-13.6,4.1-26.9,4.7-40,1.7c-13.1-3-24.6-9.2-34.6-18.6c-10-9.4-17.1-21.3-21.4-35.5
				s-4.9-28.1-1.8-41.3c3.1-13.3,9.3-24.8,18.5-34.6s20.7-16.7,34.3-20.8C484.5,66.1,497.9,65.5,511,68.5z M456.6,122.5
				c-4.5,9.5-4.9,20.7-1,33.6c3.9,12.8,10.3,21.9,19.4,27.4c9.1,5.5,19.4,6.5,30.9,3c11.4-3.4,19.4-10,23.9-19.6
				c4.6-9.6,4.9-20.8,1.1-33.6s-10.3-21.9-19.4-27.4c-9.1-5.5-19.4-6.5-30.9-3C469.1,106.5,461.1,113,456.6,122.5z"/>
			<path d="M646.6,46.3l-4.1,87.6c-0.5,10,1.4,17.8,5.7,23.3s10.7,8.5,19.3,8.9c8.6,0.4,15.3-1.9,20-7c4.8-5.1,7.4-12.6,7.8-22.7
				l4.1-87.6l36.7,1.7l-4.1,87.6c-0.7,14.3-4,26.3-10.1,35.8c-6,9.6-14,16.6-23.9,21.1c-9.9,4.5-20.9,6.4-33.1,5.9
				c-12.2-0.6-22.8-3.5-31.9-8.8c-9.1-5.3-16-13-20.9-23.1c-4.8-10.1-6.9-22.4-6.3-36.7l4.1-87.6L646.6,46.3z"/>
			<path d="M872.9,255.4l-34.2-13.6l-22.6-109.4l-34.5,86.7l-34.2-13.6l56.2-141.2l34.2,13.6l22.3,110.2l34.8-87.5l34.2,13.6
				L872.9,255.4z"/>
			<path d="M1009,322.2c-12.4,4.5-25.2,5.2-38.5,2.1c-13.3-3-26-9.9-38.1-20.6l-43.1-37.9l100.3-114.2l43.1,37.9
				c12.3,10.8,20.8,22.5,25.6,35.1c4.8,12.6,5.8,25.3,3,38.1s-9.1,24.8-18.9,36C1032.5,309.9,1021.4,317.8,1009,322.2z M984.3,290.4
				c11-0.5,21-5.9,30.1-16.2c9.1-10.3,13.1-21,12.2-31.9c-1-11-6.8-21.2-17.6-30.6l-13.1-11.5l-57.3,65.3l13.1,11.5
				C962.5,286.3,973.3,290.8,984.3,290.4z"/>
		</g>
		<g>
			<g>
				<path class="st7" d="M412.2,229.3c0.6,7.9-1.2,15.7-5.4,23.6c-4.2,7.9-10.9,15.1-20.1,21.6c-13.9,9.9-27.8,14.6-41.6,14.2
					s-25.4-6.4-34.9-18l31.9-22.6c3.8,4.4,8.1,6.9,12.8,7.5c4.8,0.7,9.4-0.6,13.8-3.7c3.9-2.7,6.1-5.9,6.9-9.6s-0.1-7.3-2.6-10.8
					c-2.2-3.2-5.1-5.1-8.7-5.7c-3.5-0.6-7.3-0.6-11.3,0.2c-4,0.8-9.3,2.2-16,4.1c-9.7,2.9-18,4.8-24.7,5.8s-13.7,0.3-20.8-2.1
					c-7.1-2.4-13.5-7.6-19.1-15.6c-5.2-7.4-7.9-15.1-7.9-23.1c-0.1-8,2.2-15.8,6.8-23.4c4.6-7.5,11.1-14.4,19.7-20.4
					c13.8-9.8,27.1-14.3,39.9-13.5c12.8,0.8,23.7,6.5,32.9,17.3l-32.5,23c-3.5-3.7-7.3-5.9-11.4-6.6c-4.1-0.7-8.2,0.4-12.3,3.3
					c-3.5,2.5-5.7,5.4-6.5,8.8c-0.8,3.4,0,6.9,2.6,10.5c2.1,2.9,4.8,4.7,8.2,5.4c3.4,0.7,7,0.6,10.8-0.2c3.8-0.8,9.2-2.1,16.1-4
					c9.9-2.9,18.2-4.9,25.1-5.8c6.9-0.9,13.9-0.2,21.1,2.3c7.2,2.5,13.6,7.7,19.4,15.8C409.1,214.2,411.7,221.4,412.2,229.3z"/>
				<path class="st7" d="M506,63.5c13.1,3,24.6,9.2,34.5,18.5s17,21.2,21.3,35.5s4.9,28.1,1.9,41.4s-9.2,24.9-18.5,34.7
					c-9.3,9.8-20.7,16.7-34.3,20.8c-13.6,4.1-26.9,4.7-40,1.7c-13.1-3-24.6-9.2-34.6-18.6c-10-9.4-17.1-21.3-21.4-35.5
					s-4.9-28.1-1.8-41.3c3.1-13.3,9.3-24.8,18.5-34.6s20.7-16.7,34.3-20.8C479.5,61.1,492.9,60.5,506,63.5z M451.6,117.5
					c-4.5,9.5-4.9,20.7-1,33.6c3.9,12.8,10.3,21.9,19.4,27.4c9.1,5.5,19.4,6.5,30.9,3c11.4-3.4,19.4-10,23.9-19.6
					c4.6-9.6,4.9-20.8,1.1-33.6s-10.3-21.9-19.4-27.4c-9.1-5.5-19.4-6.5-30.9-3C464.1,101.5,456.1,108,451.6,117.5z"/>
				<path class="st7" d="M641.6,41.3l-4.1,87.6c-0.5,10,1.4,17.8,5.7,23.3s10.7,8.5,19.3,8.9c8.6,0.4,15.3-1.9,20-7
					c4.8-5.1,7.4-12.6,7.8-22.7l4.1-87.6l36.7,1.7l-4.1,87.6c-0.7,14.3-4,26.3-10.1,35.8c-6,9.6-14,16.6-23.9,21.1
					c-9.9,4.5-20.9,6.4-33.1,5.9c-12.2-0.6-22.8-3.5-31.9-8.8c-9.1-5.3-16-13-20.9-23.1c-4.8-10.1-6.9-22.4-6.3-36.7l4.1-87.6
					L641.6,41.3z"/>
				<path class="st7" d="M867.9,250.4l-34.2-13.6l-22.6-109.4l-34.5,86.7l-34.2-13.6l56.2-141.2l34.2,13.6l22.3,110.2L890,95.6
					l34.2,13.6L867.9,250.4z"/>
				<path class="st7" d="M1004,317.2c-12.4,4.5-25.2,5.2-38.5,2.1c-13.3-3-26-9.9-38.1-20.6l-43.1-37.9l100.3-114.2l43.1,37.9
					c12.3,10.8,20.8,22.5,25.6,35.1c4.8,12.6,5.8,25.3,3,38.1s-9.1,24.8-18.9,36C1027.5,304.9,1016.4,312.8,1004,317.2z
					 M979.3,285.4c11-0.5,21-5.9,30.1-16.2c9.1-10.3,13.1-21,12.2-31.9c-1-11-6.8-21.2-17.6-30.6l-13.1-11.5l-57.3,65.3l13.1,11.5
					C957.5,281.3,968.3,285.8,979.3,285.4z"/>
			</g>
		</g>
	</g>
	<g>
		<g class="st14">
			<path d="M523.7,1174.8c3,8.1,3.2,16.3,0.4,24.8c-4,12.4-11.3,20.7-21.8,25c-10.5,4.3-23.5,3.9-38.9-1.1l-67.3-21.9l47-144.6
				l65.6,21.3c14.7,4.8,25.1,11.7,31,20.7c6,9,7,19.5,3.2,31.3c-2.8,8.7-7.5,15.2-14,19.5c-6.5,4.3-13.8,6.1-21.9,5.4
				C515.2,1160.3,520.7,1166.8,523.7,1174.8z M490,1183.1c1.7-5.2,1.3-9.8-1.2-13.8c-2.5-4-6.8-7.1-13.1-9.1l-24.7-8l-10.6,32.5
				l25,8.1C478.3,1196.9,486.5,1193.7,490,1183.1z M459,1127.5l22.9,7.4c12.1,3.9,19.9,0.7,23.3-9.6s-1.1-17.6-13.5-21.6l-22.5-7.3
				L459,1127.5z"/>
			<path d="M604.2,1096.8l-18.8,150.8l-36.5-4.6l18.8-150.8L604.2,1096.8z"/>
			<path d="M695.1,1170.3l66.8,72.9l-44.4,3.3l-56.5-64.2l5,68l-36.7,2.7l-11.2-151.6l36.7-2.7l4.9,66.7l47-70.5l44-3.2
				L695.1,1170.3z"/>
			<path d="M796,1104.3l10,30.2l48.8-16.1l8.7,26.3l-48.8,16.1l10.6,32.1l54.9-18.1l9.2,28l-89.8,29.7L752,1088.1l89.8-29.7
				l9.2,27.8L796,1104.3z"/>
		</g>
		<g>
			<g>
				<path class="st7" d="M518.7,1169.8c3,8.1,3.2,16.3,0.4,24.8c-4,12.4-11.3,20.7-21.8,25c-10.5,4.3-23.5,3.9-38.9-1.1l-67.3-21.9
					l47-144.6l65.6,21.3c14.7,4.8,25.1,11.7,31,20.7c6,9,7,19.5,3.2,31.3c-2.8,8.7-7.5,15.2-14,19.5c-6.5,4.3-13.8,6.1-21.9,5.4
					C510.2,1155.3,515.7,1161.8,518.7,1169.8z M485,1178.1c1.7-5.2,1.3-9.8-1.2-13.8c-2.5-4-6.8-7.1-13.1-9.1l-24.7-8l-10.6,32.5
					l25,8.1C473.3,1191.9,481.5,1188.7,485,1178.1z M454,1122.5l22.9,7.4c12.1,3.9,19.9,0.7,23.3-9.6s-1.1-17.6-13.5-21.6l-22.5-7.3
					L454,1122.5z"/>
				<path class="st7" d="M599.2,1091.8l-18.8,150.8l-36.5-4.6l18.8-150.8L599.2,1091.8z"/>
				<path class="st7" d="M690.1,1165.3l66.8,72.9l-44.4,3.3l-56.5-64.2l5,68l-36.7,2.7l-11.2-151.6l36.7-2.7l4.9,66.7l47-70.5
					l44-3.2L690.1,1165.3z"/>
				<path class="st7" d="M791,1099.3l10,30.2l48.8-16.1l8.7,26.3l-48.8,16.1l10.6,32.1l54.9-18.1l9.2,28l-89.8,29.7L747,1083.1
					l89.8-29.7l9.2,27.8L791,1099.3z"/>
			</g>
		</g>
	</g>
</g>
</svg>
